<?xml version="1.0" encoding="UTF-8" standalone="no"?>
<!-- Created with Inkscape (http://www.inkscape.org/) -->

<svg
   width="171.96332mm"
   height="159.90477mm"
   viewBox="0 0 171.96332 159.90477"
   version="1.1"
   id="svg1"
   xml:space="preserve"
   inkscape:version="1.4 (e7c3feb1, 2024-10-09)"
   sodipodi:docname="pp.svg"
   inkscape:export-filename="/Users/ian/Desktop/pp.svg"
   inkscape:export-xdpi="96"
   inkscape:export-ydpi="96"
   xmlns:inkscape="http://www.inkscape.org/namespaces/inkscape"
   xmlns:sodipodi="http://sodipodi.sourceforge.net/DTD/sodipodi-0.dtd"
   xmlns:xlink="http://www.w3.org/1999/xlink"
   xmlns="http://www.w3.org/2000/svg"
   xmlns:svg="http://www.w3.org/2000/svg"><sodipodi:namedview
     id="namedview1"
     pagecolor="#ffffff"
     bordercolor="#999999"
     borderopacity="1"
     inkscape:showpageshadow="2"
     inkscape:pageopacity="0"
     inkscape:pagecheckerboard="0"
     inkscape:deskcolor="#d1d1d1"
     inkscape:document-units="mm"
     inkscape:zoom="0.7642792"
     inkscape:cx="242.05814"
     inkscape:cy="504.39682"
     inkscape:window-width="1512"
     inkscape:window-height="916"
     inkscape:window-x="0"
     inkscape:window-y="38"
     inkscape:window-maximized="0"
     inkscape:current-layer="layer1"><inkscape:page
       x="0"
       y="0"
       width="171.96332"
       height="159.90477"
       id="page2"
       margin="0"
       bleed="0" /></sodipodi:namedview><defs
     id="defs1"><linearGradient
       id="linearGradient3"
       inkscape:collect="always"><stop
         style="stop-color:#2096df;stop-opacity:1;"
         offset="0"
         id="stop3" /><stop
         style="stop-color:#a31ff0;stop-opacity:1;"
         offset="1"
         id="stop4" /></linearGradient><linearGradient
       id="linearGradient1"
       inkscape:collect="always"><stop
         style="stop-color:#2096df;stop-opacity:1;"
         offset="0"
         id="stop1" /><stop
         style="stop-color:#a31ff0;stop-opacity:1;"
         offset="1"
         id="stop2" /></linearGradient><linearGradient
       inkscape:collect="always"
       xlink:href="#linearGradient1"
       id="linearGradient2"
       x1="15.597662"
       y1="133.18597"
       x2="187.56097"
       y2="133.18597"
       gradientUnits="userSpaceOnUse"
       spreadMethod="pad" /><linearGradient
       inkscape:collect="always"
       xlink:href="#linearGradient3"
       id="linearGradient4"
       x1="81.787621"
       y1="130.34027"
       x2="139.7719"
       y2="130.34027"
       gradientUnits="userSpaceOnUse"
       gradientTransform="translate(-0.54599514,6.0220995)" /></defs><g
     inkscape:label="Layer 1"
     inkscape:groupmode="layer"
     id="layer1"
     transform="translate(-15.597662,-53.233587)"><g
       id="g1"><path
         style="fill:url(#linearGradient2);stroke-width:0.257532;stroke-linecap:round;stroke-linejoin:round"
         d="M 111.45157,59.47728 C 96.264492,73.57464 51.988123,73.257511 50.493119,95.866669 48.681191,123.26872 6.3216298,149.98257 17.461457,175.1541 c 11.502233,25.99042 60.632554,2.26704 82.278877,23.96374 35.762956,35.8462 77.696726,-5.24151 74.171096,-31.95166 -4.0456,-30.64935 29.82661,-69.766422 3.60347,-84.908556 C 144.43388,63.155536 129.60138,42.629752 111.45157,59.47728 Z"
         id="path2"
         sodipodi:nodetypes="sssssss" /><path
         style="fill:#272329;fill-opacity:1;stroke-width:0.257531;stroke-linecap:round;stroke-linejoin:round"
         d="m 111.31578,69.667013 c -12.765982,12.02781 -49.983926,11.75723 -51.2406,31.047257 -1.523075,23.37931 -37.129784,46.17145 -27.765839,67.64768 9.668576,22.17491 50.966668,1.93423 69.162189,20.44576 30.0617,30.58381 65.31051,-4.47204 62.34692,-27.26101 -3.40066,-26.14989 25.07173,-59.52441 3.02901,-72.443597 -27.80733,-16.29782 -40.27526,-33.81032 -55.53168,-19.43609 z"
         id="path1"
         sodipodi:nodetypes="sssssss" /><path
         style="fill:#272329;fill-opacity:1;stroke-width:0.257531;stroke-linecap:round;stroke-linejoin:round"
         d="m 33.687015,180.4892 c 0,0 -5.75707,-0.83044 -8.101139,-2.0038 -2.560478,-1.28169 -4.140741,-2.60196 -5.526461,-5.10766 -1.316106,-2.37973 -1.343824,-4.26882 -1.063646,-6.97376 0.249493,-2.40867 2.220922,-7.35139 2.220922,-7.35139 0,0 0.07955,9.26918 2.2057,12.95285 2.176667,3.77114 10.264624,8.48376 10.264624,8.48376 z"
         id="path3"
         sodipodi:nodetypes="cssscsc" /><path
         style="fill:#272329;fill-opacity:1;stroke-width:0.257531;stroke-linecap:round;stroke-linejoin:round"
         d="m 146.29779,201.00222 c 0,0 -5.65266,6.34356 -7.65097,8.04009 -2.1828,1.85316 -2.94408,2.41079 -7.43315,2.38789 -2.71938,-0.0139 -4.26464,-0.8157 -6.64328,-2.13376 -2.1181,-1.1737 -4.24165,-3.21679 -4.24165,-3.21679 0,0 6.90774,1.85213 11.13002,1.34016 4.32255,-0.52422 14.83903,-6.41759 14.83903,-6.41759 z"
         id="path4"
         sodipodi:nodetypes="cssscsc" /><text
         xml:space="preserve"
         style="font-style:normal;font-variant:normal;font-weight:normal;font-stretch:normal;font-size:42.3333px;line-height:0px;font-family:Montserrat;-inkscape-font-specification:'Montserrat, @wght=600';font-variant-ligatures:normal;font-variant-caps:normal;font-variant-numeric:normal;font-variant-east-asian:normal;font-variation-settings:'wght' 600;text-align:center;letter-spacing:2.64583px;writing-mode:lr-tb;direction:ltr;text-anchor:middle;fill:url(#linearGradient4);fill-opacity:1;stroke-width:0.257531;stroke-linecap:round;stroke-linejoin:round"
         x="110.23377"
         y="148.99724"
         id="text2"><tspan
           sodipodi:role="line"
           id="tspan2"
           style="font-style:normal;font-variant:normal;font-weight:normal;font-stretch:normal;font-size:42.3333px;font-family:Montserrat;-inkscape-font-specification:'Montserrat, @wght=600';font-variant-ligatures:normal;font-variant-caps:normal;font-variant-numeric:normal;font-variant-east-asian:normal;font-variation-settings:'wght' 600;fill:url(#linearGradient4);fill-opacity:1;stroke-width:0.257531"
           x="111.55669"
           y="148.99724">&lt;/&gt;</tspan></text></g></g></svg>
